<svg id="iconRoot" fill="#000000" xmlns="http://www.w3.org/2000/svg" viewBox="0 0 50 50">
    <path d="M 2.90625 1.96875 C 2.863281 1.976563 2.820313 1.988281 2.78125 2 C 2.40625 2.066406 2.105469 2.339844 2 2.703125 C 1.894531 3.070313 2.003906 3.460938 2.28125 3.71875 L 46.28125 47.71875 C 46.679688 48.117188 47.320313 48.117188 47.71875 47.71875 C 48.117188 47.320313 48.117188 46.679688 47.71875 46.28125 L 42.4375 41 L 43 41 L 43 9 L 41 9 L 41 39.5625 L 39 37.5625 L 39 9 L 35 9 L 35 33.5625 L 33 31.5625 L 33 9 L 31 9 L 31 29.5625 L 29 27.5625 L 29 9 L 26 9 L 26 24.5625 L 24 22.5625 L 24 9 L 22 9 L 22 20.5625 L 20 18.5625 L 20 9 L 12 9 L 12 10.5625 L 3.71875 2.28125 C 3.511719 2.058594 3.210938 1.945313 2.90625 1.96875 Z M 3 9 L 3 41 L 5 41 L 5 9.21875 L 4.78125 9 Z M 45 9 L 45 41 L 47 41 L 47 9 Z M 7 11.21875 L 7 41 L 10 41 L 10 14.21875 Z M 12 16.21875 L 12 41 L 20 41 L 20 24.21875 Z M 22 26.21875 L 22 41 L 24 41 L 24 28.21875 Z M 26 30.21875 L 26 41 L 29 41 L 29 33.21875 Z M 31 35.21875 L 31 41 L 33 41 L 33 37.21875 Z M 35 39.21875 L 35 41 L 36.78125 41 Z"/>
</svg>
